# Blender v2.78 (sub 0) OBJ File: 'arrow.blend'
# www.blender.org
mtllib arrow.mtl
o Cube
v 0.200000 1.000000 0.100000
v 0.200000 1.000000 -0.100000
v -0.200000 1.000000 -0.100000
v -0.200000 1.000000 0.100000
v 0.200000 -0.743091 0.100000
v 0.200000 -0.743091 -0.100000
v -0.200000 -0.743091 -0.100000
v -0.200000 -0.743091 0.100000
v 0.007201 -1.334156 0.100000
v 0.007201 -1.334156 -0.100000
v 0.426907 -0.743091 0.100000
v 0.426907 -0.743091 -0.100000
v -0.420412 -0.743091 -0.100000
v -0.420412 -0.743091 0.100000
vn 0.0000 1.0000 0.0000
vn 0.0000 -0.0000 1.0000
vn 1.0000 0.0000 -0.0000
vn -0.0000 0.0000 -1.0000
vn -1.0000 0.0000 0.0000
vn 0.8154 -0.5790 -0.0000
vn -0.8102 -0.5861 0.0000
usemtl Material
s off
f 1//1 2//1 3//1 4//1
f 5//2 8//2 9//2
f 1//3 5//3 6//3 2//3
f 2//4 6//4 7//4 3//4
f 3//5 7//5 8//5 4//5
f 5//2 1//2 4//2 8//2
f 7//4 6//4 10//4
f 10//4 6//4 12//4
f 9//2 8//2 14//2
f 12//6 11//6 9//6 10//6
f 6//1 5//1 11//1 12//1
f 5//2 9//2 11//2
f 14//7 13//7 10//7 9//7
f 7//4 10//4 13//4
f 8//1 7//1 13//1 14//1
